<?xml version="1.0" encoding="UTF-8"?>
<svg version="1.1" xmlns="http://www.w3.org/2000/svg" width="636" height="672">
<path d="M0 0 C209.88 0 419.76 0 636 0 C636 221.76 636 443.52 636 672 C426.12 672 216.24 672 0 672 C0 450.24 0 228.48 0 0 Z " fill="#FEFEFE" transform="translate(0,0)"/>
<path d="M0 0 C0.66 0 1.32 0 2 0 C3.70589719 2.40637179 5.2763317 4.80027745 6.8125 7.3125 C7.26318848 8.04364014 7.71387695 8.77478027 8.17822266 9.52807617 C25.79697967 38.54514233 31.4089498 75.64849248 23.58203125 108.77099609 C18.35356116 128.79445748 9.43886737 147.2239383 -4 163 C-5.09248047 164.30130859 -5.09248047 164.30130859 -6.20703125 165.62890625 C-30.13104117 193.17384741 -59.74881639 205.69221691 -95 212 C-96.27735016 212.22940277 -96.27735016 212.22940277 -97.58050537 212.46343994 C-106.51377168 214.06749949 -115.44834885 215.66403131 -124.38769531 217.23388672 C-125.34150589 217.4016008 -126.29531647 217.56931488 -127.2780304 217.74211121 C-129.0667316 218.05626543 -130.85560768 218.36942643 -132.6446991 218.68135071 C-138.4482387 219.70055111 -144.22680529 220.82120523 -150 222 C-149.60737906 229.74909742 -149.12261564 237.25037664 -147.41015625 244.8359375 C-146.82108188 247.94400609 -146.86288752 250.84641304 -147 254 C-151.98853093 253.4026176 -156.24348183 251.80018192 -160.8125 249.8125 C-167.3594152 247.03714613 -173.94551902 244.51467766 -180.67504883 242.21801758 C-193.15493659 237.93834384 -205.37366514 232.89875093 -217.62695312 228.01757812 C-225.01282942 225.09834012 -232.43639349 222.42260284 -240 220 C-240 219.34 -240 218.68 -240 218 C-241.01191406 217.89042969 -242.02382812 217.78085937 -243.06640625 217.66796875 C-247.04242176 216.9927963 -250.228042 215.87416132 -253.9375 214.3125 C-255.25718284 213.76670422 -256.57751856 213.22248488 -257.8984375 212.6796875 C-258.57358398 212.40092773 -259.24873047 212.12216797 -259.94433594 211.83496094 C-263.29406402 210.47438255 -266.67543292 209.20169279 -270.0625 207.9375 C-270.73442383 207.68637451 -271.40634766 207.43524902 -272.09863281 207.17651367 C-276.28163633 205.62078849 -280.47956027 204.11220329 -284.6875 202.625 C-294.18820869 199.25101664 -303.58876016 195.61448355 -313 192 C-314.12341797 191.56896973 -315.24683594 191.13793945 -316.40429688 190.69384766 C-322.12459627 188.49875753 -327.84421059 186.30188372 -333.5625 184.1015625 C-334.49191406 183.74400879 -335.42132813 183.38645508 -336.37890625 183.01806641 C-338.92616495 182.02867848 -341.46466915 181.01951935 -344 180 C-344 179.34 -344 178.68 -344 178 C-342.5605603 177.7666394 -342.5605603 177.7666394 -341.09204102 177.52856445 C-317.89246284 173.78353658 -317.89246284 173.78353658 -294.8125 169.375 C-287.08479761 167.77586417 -279.36373858 166.37666596 -271.5625 165.1875 C-260.002749 163.42283941 -248.54043212 161.22411944 -237.0625 159 C-224.36838056 156.54064884 -211.69989504 154.22271092 -198.90039062 152.3737793 C-190.37504648 151.12174199 -181.95323402 149.46960967 -173.52905273 147.66137695 C-167.907618 146.47784229 -162.4290373 145.72731774 -156.70483398 145.27563477 C-152.14503687 144.8109709 -147.71947765 143.80511645 -143.25 142.8125 C-136.26741722 141.29527213 -129.28363175 139.84374208 -122.25 138.58203125 C-91.61172728 133.05568728 -61.67391112 123.71647866 -40 100 C-38.82050781 98.83210938 -38.82050781 98.83210938 -37.6171875 97.640625 C-22.46736307 82.3551305 -12.14308181 63.58128045 -6 43 C-5.74605469 42.23945313 -5.49210937 41.47890625 -5.23046875 40.6953125 C-0.93122773 27.43755448 -0.52323274 13.81059049 0 0 Z " fill="#51B17C" transform="translate(464,322)"/>
<path d="M0 0 C6.70621292 1.96136019 13.34194679 4.06880413 19.9375 6.375 C20.81647949 6.68171631 21.69545898 6.98843262 22.60107422 7.30444336 C27.92171768 9.18848902 33.01383721 11.30634125 38.1015625 13.75390625 C41.98947427 15.42539392 45.97501354 16.70066287 50 18 C55.86163558 19.89378683 61.41067475 21.98704907 66.97265625 24.65234375 C73.41105223 27.51846841 80.10948208 29.7685949 86.73193359 32.16992188 C90.9372591 33.70900764 95.10913314 35.3325238 99.28515625 36.94921875 C103.68490253 38.65214213 108.09230805 40.32893786 112.54296875 41.89453125 C117.34416879 43.59425087 122.00627813 45.41140296 126.625 47.5625 C131.33260426 49.74912868 136.04853287 51.46211164 141 53 C148.35214605 55.35528927 155.47227037 58.13603945 162.609375 61.07421875 C163.46015625 61.42097656 164.3109375 61.76773438 165.1875 62.125 C165.94417969 62.43695313 166.70085937 62.74890625 167.48046875 63.0703125 C170.08292538 64.07325599 170.08292538 64.07325599 173.1796875 64.859375 C177.92882369 66.2773175 182.38966203 68.16752753 186.9375 70.125 C187.81212891 70.49753906 188.68675781 70.87007813 189.58789062 71.25390625 C191.72686203 72.16559898 193.86414714 73.08103087 196 74 C196 74.66 196 75.32 196 76 C195.16154541 76.12528076 194.32309082 76.25056152 193.45922852 76.37963867 C178.3277305 78.65478038 163.25399851 81.01790379 148.26513672 84.1171875 C140.26066276 85.76818326 132.23455818 87.25880169 124.1875 88.6875 C123.04893555 88.88988281 121.91037109 89.09226562 120.73730469 89.30078125 C115.52554695 90.22077379 110.31103883 91.11953312 105.08984375 91.984375 C98.17652065 93.13004395 91.27509174 94.33992854 84.375 95.5625 C83.11042969 95.78357422 81.84585938 96.00464844 80.54296875 96.23242188 C79.34027344 96.44576172 78.13757813 96.65910156 76.8984375 96.87890625 C75.81224121 97.0704126 74.72604492 97.26191895 73.60693359 97.45922852 C71.031982 97.8772495 71.031982 97.8772495 69 99 C65.96005384 99.44545746 62.92163686 99.85585563 59.875 100.25 C50.74562529 101.48573315 41.78638391 103.20928661 32.78417969 105.15429688 C25.66909447 106.68277421 18.54718087 107.9920085 11.35473633 109.09960938 C7.56142007 109.65540662 7.56142007 109.65540662 4 111 C1.50254323 111.31911327 -0.98829532 111.59839273 -3.4921875 111.85546875 C-12.02584154 112.79908466 -20.41645665 114.21608404 -28.83935547 115.86694336 C-31.12906211 116.31329186 -33.42163283 116.74198929 -35.71484375 117.16992188 C-48.28909803 119.57359708 -60.64908775 122.7782326 -72.0625 128.75 C-72.71750488 129.08652588 -73.37250977 129.42305176 -74.04736328 129.76977539 C-86.04073949 136.05539089 -96.77114476 143.38998694 -106.1484375 153.26171875 C-108 155 -108 155 -110 155 C-110 155.66 -110 156.32 -110 157 C-111.12566629 158.12566629 -112.25458763 159.24816946 -113.39453125 160.359375 C-134.47509674 181.90155871 -145.71017405 213.47471559 -146.625 243.1875 C-146.66367188 244.23486328 -146.70234375 245.28222656 -146.7421875 246.36132812 C-146.83519437 248.90739113 -146.92103284 251.45346963 -147 254 C-147.66 254 -148.32 254 -149 254 C-150.53273834 251.71444322 -151.93804129 249.44110872 -153.3125 247.0625 C-153.69083984 246.42248047 -154.06917969 245.78246094 -154.45898438 245.12304688 C-155.24409371 243.78796248 -156.02090765 242.44797265 -156.7902832 241.10375977 C-157.60276235 239.69081671 -158.43239035 238.28760901 -159.27807617 236.89428711 C-162.7635264 230.99068571 -164.80076241 225.008848 -166.6875 218.4375 C-167.12932617 216.9534668 -167.12932617 216.9534668 -167.58007812 215.43945312 C-168.40904796 212.63213279 -169.20990569 209.81847428 -170 207 C-170.20318848 206.30406738 -170.40637695 205.60813477 -170.61572266 204.89111328 C-179.21827269 173.68204672 -171.59365793 136.68176485 -156 109 C-138.90125909 78.91487359 -110.09400969 56.46722918 -77 47 C-75.7521875 46.63261719 -74.504375 46.26523438 -73.21875 45.88671875 C-64.08384245 43.40148655 -54.8700525 42.00174513 -45.50805664 40.64672852 C-35.507901 39.16567731 -25.65684485 37.16429668 -15.7824707 35.01806641 C-9.51641712 33.66788577 -3.38682243 32.56574841 3 32 C2.40649322 24.82867199 1.62233658 17.70269486 0.66064453 10.57226562 C0.19438463 7.01494057 -0.03961578 3.5838823 0 0 Z " fill="#59C16E" transform="translate(365,108)"/>
<path d="M0 0 C0.91910156 0.68320312 1.83820313 1.36640625 2.78515625 2.0703125 C5.26230163 3.97580894 7.64043003 5.9514454 10 8 C10.66128906 8.55429687 11.32257813 9.10859375 12.00390625 9.6796875 C21.29021193 18.12178358 29.47963463 30.94813691 33 43 C33.35578125 44.16402344 33.7115625 45.32804687 34.078125 46.52734375 C40.4224125 68.57339726 39.44848789 92.8995729 28.52734375 113.4140625 C16.13843914 134.38965036 -0.21707787 151.01612604 -24 158 C-25.16208984 158.50080078 -25.16208984 158.50080078 -26.34765625 159.01171875 C-46.74803812 166.61303924 -70.80274119 163.20061667 -90.29296875 154.79296875 C-102.88712486 148.9704293 -114.70834255 139.08211909 -123 128 C-123.78375 126.95328125 -124.5675 125.9065625 -125.375 124.828125 C-136.74088418 109.04621026 -141.36696975 92.04604986 -141.3125 72.6875 C-141.32861328 71.55376953 -141.34472656 70.42003906 -141.36132812 69.25195312 C-141.37456865 46.01482976 -131.35515918 25.21654409 -115.375 8.6875 C-105.78633412 -0.73861911 -93.91282921 -8.23816105 -81 -12 C-80.30519531 -12.27070313 -79.61039062 -12.54140625 -78.89453125 -12.8203125 C-53.33247901 -22.69982988 -21.28352568 -16.33715517 0 0 Z " fill="#55B96D" transform="translate(393,269)"/>
<path d="M0 0 C0 0.33 0 0.66 0 1 C-1.69769531 1.25523437 -1.69769531 1.25523437 -3.4296875 1.515625 C-4.91161179 1.75948596 -6.39337474 2.0043288 -7.875 2.25 C-8.99455078 2.41435547 -8.99455078 2.41435547 -10.13671875 2.58203125 C-14.46813926 3.21829808 -14.46813926 3.21829808 -17.5078125 6.109375 C-17.67023438 6.73328125 -17.83265625 7.3571875 -18 8 C-17.34 8 -16.68 8 -16 8 C-16 8.66 -16 9.32 -16 10 C-15.34 10.33 -14.68 10.66 -14 11 C-17.46021705 10.34031833 -20.85621895 9.56997496 -24.25 8.625 C-25.12140625 8.39039063 -25.9928125 8.15578125 -26.890625 7.9140625 C-27.58671875 7.61242187 -28.2828125 7.31078125 -29 7 C-29.33 6.01 -29.66 5.02 -30 4 C-26.1263657 3.32523211 -22.25089817 2.66162968 -18.375 2 C-17.28058594 1.80921875 -16.18617188 1.6184375 -15.05859375 1.421875 C-13.46337891 1.15117187 -13.46337891 1.15117187 -11.8359375 0.875 C-10.86188965 0.70742188 -9.8878418 0.53984375 -8.88427734 0.3671875 C-5.89195244 -0.01375517 -3.01314583 -0.06252962 0 0 Z " fill="#537EED" transform="translate(150,496)"/>
<path d="M0 0 C-7.64414021 1.79721165 -15.29067077 3.5069961 -23 5 C-24.25296875 5.27457031 -24.25296875 5.27457031 -25.53125 5.5546875 C-28 6 -28 6 -32 6 C-32 6.66 -32 7.32 -32 8 C-32.66 8 -33.32 8 -34 8 C-34 7.34 -34 6.68 -34 6 C-34.66 5.67 -35.32 5.34 -36 5 C-31.97981356 4.18427743 -27.95874228 3.37300025 -23.9375 2.5625 C-22.80376953 2.33240234 -21.67003906 2.10230469 -20.50195312 1.86523438 C-4.02566176 -1.44923823 -4.02566176 -1.44923823 0 0 Z " fill="#6C9DDD" transform="translate(192,489)"/>
<path d="M0 0 C0.66 0 1.32 0 2 0 C3.625 2 3.625 2 5 4 C4.67 4.66 4.34 5.32 4 6 C3.01 5.34 2.02 4.68 1 4 C1 9.28 1 14.56 1 20 C0.67 20 0.34 20 0 20 C0 13.4 0 6.8 0 0 Z " fill="#8BF378" transform="translate(464,322)"/>
<path d="M0 0 C1.67542976 0.28604898 3.34385343 0.61781233 5 1 C5 2.65 5 4.3 5 6 C3.68 6 2.36 6 1 6 C0.34 4.35 -0.32 2.7 -1 1 C-0.67 0.67 -0.34 0.34 0 0 Z " fill="#4DA973" transform="translate(281,162)"/>
<path d="M0 0 C-6.32453722 3.68931338 -12.87262743 4.25454902 -20 4 C-20 3.67 -20 3.34 -20 3 C-13.37918509 0.93099534 -6.98706888 -0.2183459 0 0 Z " fill="#97E49E" transform="translate(381,215)"/>
<path d="M0 0 C0.90105469 0.00902344 1.80210937 0.01804687 2.73046875 0.02734375 C3.41753906 0.03894531 4.10460937 0.05054688 4.8125 0.0625 C2.8125 2.0625 2.8125 2.0625 -0.8125 2.1875 C-1.92625 2.14625 -3.04 2.105 -4.1875 2.0625 C-4.1875 2.7225 -4.1875 3.3825 -4.1875 4.0625 C-4.8475 4.0625 -5.5075 4.0625 -6.1875 4.0625 C-6.1875 3.4025 -6.1875 2.7425 -6.1875 2.0625 C-6.8475 1.7325 -7.5075 1.4025 -8.1875 1.0625 C-5.17259443 0.05753148 -3.14568308 -0.04085303 0 0 Z " fill="#4A7DDE" transform="translate(164.1875,492.9375)"/>
<path d="M0 0 C1 2 1 2 0.375 4.375 C-1.25561397 7.4879903 -3.15997255 8.98208576 -6 11 C-4.54955729 6.89041233 -2.48889248 3.56741255 0 0 Z " fill="#5BA2AE" transform="translate(217,205)"/>
<path d="M0 0 C0.66 0.99 1.32 1.98 2 3 C0.35 5.64 -1.3 8.28 -3 11 C-4 7 -4 7 -3.22265625 5.078125 C-1.61132812 2.5390625 -1.61132812 2.5390625 0 0 Z " fill="#60A3B6" transform="translate(209,217)"/>
<path d="M0 0 C0.66 0.33 1.32 0.66 2 1 C-1.96 4.465 -1.96 4.465 -6 8 C-6.66 7.34 -7.32 6.68 -8 6 C-5.36 4.02 -2.72 2.04 0 0 Z " fill="#78D97B" transform="translate(413,432)"/>
</svg>
